<svg width="32" height="32" viewBox="0 0 32 32" fill="none" xmlns="http://www.w3.org/2000/svg">
<path d="M24.0231 7H10.0756C9.22776 7 8.65656 7.87888 8.90881 8.68829C10.7058 14.4544 8.76624 20.2094 6.94152 23.4753C6.53248 24.2074 6.91482 25.1751 7.74112 25.3184C20.3883 27.5122 24.5787 20.3531 25.0799 16.3224C25.4581 13.2802 25.2897 9.7671 25.1672 8.05198C25.1244 7.45325 24.6234 7 24.0231 7Z" fill="#D6E1F6"/>
<mask id="path-2-outside-1_106_6" maskUnits="userSpaceOnUse" x="12.1449" y="9.51135" width="11" height="9" fill="black">
<rect fill="white" x="12.1449" y="9.51135" width="11" height="9"/>
<path d="M17.0902 17.5114H12.9416V10.5452H14.5107V16.2386H17.0902V17.5114ZM22.2638 11.8228H20.2769V17.5114H18.703V11.8228H16.7258V10.5452H22.2638V11.8228Z"/>
</mask>
<path d="M17.0902 17.5114H12.9416V10.5452H14.5107V16.2386H17.0902V17.5114ZM22.2638 11.8228H20.2769V17.5114H18.703V11.8228H16.7258V10.5452H22.2638V11.8228Z" fill="#1C212A"/>
<path d="M17.0902 17.5114V17.5699H17.1487V17.5114H17.0902ZM12.9416 17.5114H12.8831V17.5699H12.9416V17.5114ZM12.9416 10.5452V10.4867H12.8831V10.5452H12.9416ZM14.5107 10.5452H14.5692V10.4867H14.5107V10.5452ZM14.5107 16.2386H14.4521V16.2971H14.5107V16.2386ZM17.0902 16.2386H17.1487V16.1801H17.0902V16.2386ZM17.0902 17.4528H12.9416V17.5699H17.0902V17.4528ZM13.0001 17.5114V10.5452H12.8831V17.5114H13.0001ZM12.9416 10.6037H14.5107V10.4867H12.9416V10.6037ZM14.4521 10.5452V16.2386H14.5692V10.5452H14.4521ZM14.5107 16.2971H17.0902V16.1801H14.5107V16.2971ZM17.0317 16.2386V17.5114H17.1487V16.2386H17.0317ZM22.2638 11.8228V11.8813H22.3223V11.8228H22.2638ZM20.2769 11.8228V11.7643H20.2184V11.8228H20.2769ZM20.2769 17.5114V17.5699H20.3354V17.5114H20.2769ZM18.703 17.5114H18.6445V17.5699H18.703V17.5114ZM18.703 11.8228H18.7615V11.7643H18.703V11.8228ZM16.7258 11.8228H16.6673V11.8813H16.7258V11.8228ZM16.7258 10.5452V10.4867H16.6673V10.5452H16.7258ZM22.2638 10.5452H22.3223V10.4867H22.2638V10.5452ZM22.2638 11.7643H20.2769V11.8813H22.2638V11.7643ZM20.2184 11.8228V17.5114H20.3354V11.8228H20.2184ZM20.2769 17.4528H18.703V17.5699H20.2769V17.4528ZM18.7615 17.5114V11.8228H18.6445V17.5114H18.7615ZM18.703 11.7643H16.7258V11.8813H18.703V11.7643ZM16.7844 11.8228V10.5452H16.6673V11.8228H16.7844ZM16.7258 10.6037H22.2638V10.4867H16.7258V10.6037ZM22.2053 10.5452V11.8228H22.3223V10.5452H22.2053Z" fill="#1C212A" mask="url(#path-2-outside-1_106_6)"/>
</svg>
