<svg width="32" height="32" viewBox="0 0 32 32" fill="none" xmlns="http://www.w3.org/2000/svg">
<path d="M4.83035 14.4402L4.56598 20.4696C4.53002 21.2898 5.18524 21.9744 6.00619 21.9744H24.1938C24.8665 21.9744 25.4498 21.5091 25.5994 20.8532L27.2908 13.4347C27.4179 12.8773 27.2036 12.2974 26.7445 11.9567L23.1748 9.30717C22.9486 9.13931 22.6766 9.04038 22.3952 9.02837C14.3045 8.68305 8.03123 11.569 5.39212 13.388C5.04587 13.6267 4.84878 14.0201 4.83035 14.4402Z" fill="#D6E1F6"/>
<mask id="path-2-outside-1_106_52" maskUnits="userSpaceOnUse" x="11.9979" y="11.5385" width="12" height="9" fill="black">
<rect fill="white" x="11.9979" y="11.5385" width="12" height="9"/>
<path d="M16.9813 19.5385H12.8007V12.5186H14.3819V18.2559H16.9813V19.5385ZM17.931 19.5385V12.5186H20.4864C21.2696 12.5186 21.8717 12.6622 22.2927 12.9493C22.7137 13.2365 22.9242 13.6412 22.9242 14.1634C22.9242 14.542 22.7953 14.8732 22.5375 15.1571C22.2829 15.4411 21.9566 15.6385 21.5584 15.7495V15.7691C22.0578 15.8311 22.4559 16.0155 22.7529 16.3222C23.0531 16.629 23.2033 17.0027 23.2033 17.4433C23.2033 18.0862 22.9732 18.5969 22.513 18.9755C22.0529 19.3508 21.4246 19.5385 20.6283 19.5385H17.931ZM19.5122 13.6836V15.3481H20.2073C20.5337 15.3481 20.7899 15.2697 20.9759 15.1131C21.1652 14.9532 21.2598 14.7345 21.2598 14.4571C21.2598 13.9415 20.8747 13.6836 20.1045 13.6836H19.5122ZM19.5122 16.5229V18.3734H20.3689C20.7344 18.3734 21.02 18.2885 21.2256 18.1188C21.4344 17.9491 21.5389 17.7174 21.5389 17.4237C21.5389 17.143 21.4361 16.9227 21.2305 16.7628C21.0281 16.6029 20.7442 16.5229 20.3787 16.5229H19.5122Z"/>
</mask>
<path d="M16.9813 19.5385H12.8007V12.5186H14.3819V18.2559H16.9813V19.5385ZM17.931 19.5385V12.5186H20.4864C21.2696 12.5186 21.8717 12.6622 22.2927 12.9493C22.7137 13.2365 22.9242 13.6412 22.9242 14.1634C22.9242 14.542 22.7953 14.8732 22.5375 15.1571C22.2829 15.4411 21.9566 15.6385 21.5584 15.7495V15.7691C22.0578 15.8311 22.4559 16.0155 22.7529 16.3222C23.0531 16.629 23.2033 17.0027 23.2033 17.4433C23.2033 18.0862 22.9732 18.5969 22.513 18.9755C22.0529 19.3508 21.4246 19.5385 20.6283 19.5385H17.931ZM19.5122 13.6836V15.3481H20.2073C20.5337 15.3481 20.7899 15.2697 20.9759 15.1131C21.1652 14.9532 21.2598 14.7345 21.2598 14.4571C21.2598 13.9415 20.8747 13.6836 20.1045 13.6836H19.5122ZM19.5122 16.5229V18.3734H20.3689C20.7344 18.3734 21.02 18.2885 21.2256 18.1188C21.4344 17.9491 21.5389 17.7174 21.5389 17.4237C21.5389 17.143 21.4361 16.9227 21.2305 16.7628C21.0281 16.6029 20.7442 16.5229 20.3787 16.5229H19.5122Z" fill="#1C212A"/>
<path d="M16.9813 19.5385V19.5974H17.0403V19.5385H16.9813ZM12.8007 19.5385H12.7417V19.5974H12.8007V19.5385ZM12.8007 12.5186V12.4596H12.7417V12.5186H12.8007ZM14.3819 12.5186H14.4409V12.4596H14.3819V12.5186ZM14.3819 18.2559H14.3229V18.3149H14.3819V18.2559ZM16.9813 18.2559H17.0403V18.1969H16.9813V18.2559ZM16.9813 19.4795H12.8007V19.5974H16.9813V19.4795ZM12.8597 19.5385V12.5186H12.7417V19.5385H12.8597ZM12.8007 12.5775H14.3819V12.4596H12.8007V12.5775ZM14.3229 12.5186V18.2559H14.4409V12.5186H14.3229ZM14.3819 18.3149H16.9813V18.1969H14.3819V18.3149ZM16.9223 18.2559V19.5385H17.0403V18.2559H16.9223ZM17.931 19.5385H17.872V19.5974H17.931V19.5385ZM17.931 12.5186V12.4596H17.872V12.5186H17.931ZM22.5375 15.1571L22.4938 15.1175L22.4936 15.1178L22.5375 15.1571ZM21.5584 15.7495L21.5426 15.6927L21.4995 15.7047V15.7495H21.5584ZM21.5584 15.7691H21.4995V15.8212L21.5512 15.8276L21.5584 15.7691ZM22.7529 16.3222L22.7105 16.3632L22.7108 16.3635L22.7529 16.3222ZM22.513 18.9755L22.5503 19.0212L22.5505 19.021L22.513 18.9755ZM19.5122 13.6836V13.6247H19.4532V13.6836H19.5122ZM19.5122 15.3481H19.4532V15.407H19.5122V15.3481ZM20.9759 15.1131L21.0139 15.1582L21.014 15.1581L20.9759 15.1131ZM19.5122 16.5229V16.464H19.4532V16.5229H19.5122ZM19.5122 18.3734H19.4532V18.4323H19.5122V18.3734ZM21.2256 18.1188L21.1884 18.073L21.188 18.0733L21.2256 18.1188ZM21.2305 16.7628L21.1939 16.8091L21.1942 16.8094L21.2305 16.7628ZM17.99 19.5385V12.5186H17.872V19.5385H17.99ZM17.931 12.5775H20.4864V12.4596H17.931V12.5775ZM20.4864 12.5775C21.2637 12.5775 21.8523 12.7203 22.2595 12.9981L22.326 12.9006C21.8912 12.604 21.2755 12.4596 20.4864 12.4596V12.5775ZM22.2595 12.9981C22.6639 13.2739 22.8653 13.6601 22.8653 14.1634H22.9832C22.9832 13.6223 22.7635 13.1991 22.326 12.9006L22.2595 12.9981ZM22.8653 14.1634C22.8653 14.5271 22.742 14.8443 22.4938 15.1175L22.5812 15.1968C22.8487 14.9022 22.9832 14.5568 22.9832 14.1634H22.8653ZM22.4936 15.1178C22.2472 15.3926 21.9309 15.5845 21.5426 15.6927L21.5743 15.8063C21.9823 15.6926 22.3187 15.4895 22.5814 15.1965L22.4936 15.1178ZM21.4995 15.7495V15.7691H21.6174V15.7495H21.4995ZM21.5512 15.8276C22.0396 15.8882 22.4245 16.0678 22.7105 16.3632L22.7953 16.2812C22.4873 15.9631 22.0759 15.7739 21.5657 15.7105L21.5512 15.8276ZM22.7108 16.3635C22.9999 16.6589 23.1443 17.0176 23.1443 17.4433H23.2622C23.2622 16.9877 23.1064 16.5991 22.795 16.281L22.7108 16.3635ZM23.1443 17.4433C23.1443 18.0701 22.9209 18.5636 22.4756 18.93L22.5505 19.021C23.0255 18.6303 23.2622 18.1022 23.2622 17.4433H23.1443ZM22.4758 18.9298C22.0292 19.294 21.4157 19.4795 20.6283 19.4795V19.5974C21.4336 19.5974 22.0765 19.4076 22.5503 19.0212L22.4758 18.9298ZM20.6283 19.4795H17.931V19.5974H20.6283V19.4795ZM19.4532 13.6836V15.3481H19.5712V13.6836H19.4532ZM19.5122 15.407H20.2073V15.2891H19.5122V15.407ZM20.2073 15.407C20.5428 15.407 20.8141 15.3265 21.0139 15.1582L20.9379 15.068C20.7657 15.213 20.5246 15.2891 20.2073 15.2891V15.407ZM21.014 15.1581C21.2182 14.9856 21.3188 14.7495 21.3188 14.4571H21.2008C21.2008 14.7195 21.1122 14.9207 20.9378 15.068L21.014 15.1581ZM21.3188 14.4571C21.3188 14.1822 21.2148 13.9692 21.0038 13.828C20.797 13.6896 20.4943 13.6247 20.1045 13.6247V13.7426C20.4849 13.7426 20.7599 13.8066 20.9382 13.926C21.1123 14.0426 21.2008 14.2164 21.2008 14.4571H21.3188ZM20.1045 13.6247H19.5122V13.7426H20.1045V13.6247ZM19.4532 16.5229V18.3734H19.5712V16.5229H19.4532ZM19.5122 18.4323H20.3689V18.3144H19.5122V18.4323ZM20.3689 18.4323C20.743 18.4323 21.0436 18.3455 21.2631 18.1643L21.188 18.0733C20.9963 18.2316 20.7257 18.3144 20.3689 18.3144V18.4323ZM21.2627 18.1646C21.4868 17.9826 21.5978 17.7333 21.5978 17.4237H21.4799C21.4799 17.7015 21.3821 17.9157 21.1884 18.073L21.2627 18.1646ZM21.5978 17.4237C21.5978 17.1264 21.4879 16.8883 21.2667 16.7163L21.1942 16.8094C21.3842 16.9571 21.4799 17.1596 21.4799 17.4237H21.5978ZM21.267 16.7165C21.0507 16.5456 20.752 16.464 20.3787 16.464V16.5819C20.7363 16.5819 21.0055 16.6602 21.1939 16.8091L21.267 16.7165ZM20.3787 16.464H19.5122V16.5819H20.3787V16.464Z" fill="#1C212A" mask="url(#path-2-outside-1_106_52)"/>
</svg>
