<svg width="32" height="32" viewBox="0 0 32 32" fill="none" xmlns="http://www.w3.org/2000/svg">
<rect x="4" y="8.52941" width="24" height="11.2941" rx="5.64706" fill="#D6E1F6"/>
<rect x="10.3529" y="19.8235" width="11.2941" height="5.64706" fill="#D6E1F6"/>
<mask id="path-3-outside-1_106_98" maskUnits="userSpaceOnUse" x="13.1765" y="9.29412" width="7" height="10" fill="black">
<rect fill="white" x="13.1765" y="9.29412" width="7" height="10"/>
<path d="M19.1413 18.2941H14.1374V9.89177H16.03V16.759H19.1413V18.2941Z"/>
</mask>
<path d="M19.1413 18.2941H14.1374V9.89177H16.03V16.759H19.1413V18.2941Z" fill="#1C212A"/>
<path d="M19.1413 18.2941V18.3647H19.2119V18.2941H19.1413ZM14.1374 18.2941H14.0668V18.3647H14.1374V18.2941ZM14.1374 9.89177V9.82118H14.0668V9.89177H14.1374ZM16.03 9.89177H16.1006V9.82118H16.03V9.89177ZM16.03 16.759H15.9594V16.8295H16.03V16.759ZM19.1413 16.759H19.2119V16.6884H19.1413V16.759ZM19.1413 18.2235H14.1374V18.3647H19.1413V18.2235ZM14.208 18.2941V9.89177H14.0668V18.2941H14.208ZM14.1374 9.96236H16.03V9.82118H14.1374V9.96236ZM15.9594 9.89177V16.759H16.1006V9.89177H15.9594ZM16.03 16.8295H19.1413V16.6884H16.03V16.8295ZM19.0707 16.759V18.2941H19.2119V16.759H19.0707Z" fill="#1C212A" mask="url(#path-3-outside-1_106_98)"/>
</svg>
