<svg width="32" height="32" viewBox="0 0 32 32" fill="none" xmlns="http://www.w3.org/2000/svg">
<rect x="4" y="11.0588" width="24" height="11.2941" rx="5.64706" fill="#D6E1F6"/>
<rect x="10.3529" y="22.3529" width="11.2941" height="2.82353" fill="#D6E1F6"/>
<mask id="path-3-outside-1_106_62" maskUnits="userSpaceOnUse" x="13.1765" y="11.8235" width="7" height="10" fill="black">
<rect fill="white" x="13.1765" y="11.8235" width="7" height="10"/>
<path d="M19.1413 20.8235H14.1374V12.4212H16.03V19.2884H19.1413V20.8235Z"/>
</mask>
<path d="M19.1413 20.8235H14.1374V12.4212H16.03V19.2884H19.1413V20.8235Z" fill="#1C212A"/>
<path d="M19.1413 20.8235V20.8941H19.2119V20.8235H19.1413ZM14.1374 20.8235H14.0668V20.8941H14.1374V20.8235ZM14.1374 12.4212V12.3506H14.0668V12.4212H14.1374ZM16.03 12.4212H16.1006V12.3506H16.03V12.4212ZM16.03 19.2884H15.9594V19.359H16.03V19.2884ZM19.1413 19.2884H19.2119V19.2178H19.1413V19.2884ZM19.1413 20.7529H14.1374V20.8941H19.1413V20.7529ZM14.208 20.8235V12.4212H14.0668V20.8235H14.208ZM14.1374 12.4918H16.03V12.3506H14.1374V12.4918ZM15.9594 12.4212V19.2884H16.1006V12.4212H15.9594ZM16.03 19.359H19.1413V19.2178H16.03V19.359ZM19.0707 19.2884V20.8235H19.2119V19.2884H19.0707Z" fill="#1C212A" mask="url(#path-3-outside-1_106_62)"/>
<path d="M16 11.0588L18.4453 7.88235H13.5548L16 11.0588Z" fill="#D6E1F6"/>
</svg>
