<svg width="32" height="32" viewBox="0 0 32 32" fill="none" xmlns="http://www.w3.org/2000/svg">
<path d="M7.63313 7.27274H21.5807C22.4285 7.27274 22.9997 8.15162 22.7474 8.96103C20.9504 14.7272 22.89 20.4821 24.7147 23.748C25.1238 24.4802 24.7414 25.4478 23.9151 25.5911C11.268 27.7849 7.07753 20.6258 6.5764 16.5951C6.19817 13.5529 6.36653 10.0398 6.48906 8.32472C6.53184 7.72598 7.03287 7.27274 7.63313 7.27274Z" fill="#D6E1F6"/>
<mask id="path-2-outside-1_106_14" maskUnits="userSpaceOnUse" x="8.53835" y="9.78409" width="13" height="9" fill="black">
<rect fill="white" x="8.53835" y="9.78409" width="13" height="9"/>
<path d="M15.179 17.7841H13.3768L12.2935 15.9915C12.2125 15.8555 12.1348 15.7341 12.0603 15.6272C11.9858 15.5203 11.9097 15.4297 11.832 15.3552C11.7575 15.2774 11.6781 15.2191 11.5939 15.1803C11.513 15.1382 11.4239 15.1171 11.3268 15.1171H10.9041V17.7841H9.33504V10.8179H11.8223C13.5128 10.8179 14.358 11.4495 14.358 12.7125C14.358 12.9554 14.3208 13.1805 14.2463 13.3877C14.1718 13.5918 14.0666 13.7764 13.9306 13.9415C13.7945 14.1067 13.6294 14.2492 13.4351 14.369C13.244 14.4889 13.0302 14.5828 12.7938 14.6508V14.6702C12.8975 14.7026 12.9979 14.756 13.095 14.8305C13.1922 14.9018 13.2861 14.986 13.3768 15.0831C13.4674 15.1803 13.5533 15.2855 13.6342 15.3989C13.7184 15.509 13.7945 15.6175 13.8625 15.7244L15.179 17.7841ZM10.9041 11.9935V13.9318H11.5842C11.921 13.9318 12.1915 13.8347 12.3955 13.6403C12.6027 13.4428 12.7064 13.1983 12.7064 12.9068C12.7064 12.298 12.342 11.9935 11.6134 11.9935H10.9041ZM20.5227 12.0956H18.5358V17.7841H16.9619V12.0956H14.9847V10.8179H20.5227V12.0956Z"/>
</mask>
<path d="M15.179 17.7841H13.3768L12.2935 15.9915C12.2125 15.8555 12.1348 15.7341 12.0603 15.6272C11.9858 15.5203 11.9097 15.4297 11.832 15.3552C11.7575 15.2774 11.6781 15.2191 11.5939 15.1803C11.513 15.1382 11.4239 15.1171 11.3268 15.1171H10.9041V17.7841H9.33504V10.8179H11.8223C13.5128 10.8179 14.358 11.4495 14.358 12.7125C14.358 12.9554 14.3208 13.1805 14.2463 13.3877C14.1718 13.5918 14.0666 13.7764 13.9306 13.9415C13.7945 14.1067 13.6294 14.2492 13.4351 14.369C13.244 14.4889 13.0302 14.5828 12.7938 14.6508V14.6702C12.8975 14.7026 12.9979 14.756 13.095 14.8305C13.1922 14.9018 13.2861 14.986 13.3768 15.0831C13.4674 15.1803 13.5533 15.2855 13.6342 15.3989C13.7184 15.509 13.7945 15.6175 13.8625 15.7244L15.179 17.7841ZM10.9041 11.9935V13.9318H11.5842C11.921 13.9318 12.1915 13.8347 12.3955 13.6403C12.6027 13.4428 12.7064 13.1983 12.7064 12.9068C12.7064 12.298 12.342 11.9935 11.6134 11.9935H10.9041ZM20.5227 12.0956H18.5358V17.7841H16.9619V12.0956H14.9847V10.8179H20.5227V12.0956Z" fill="#1C212A"/>
<path d="M15.179 17.7841V17.8426H15.2859L15.2283 17.7526L15.179 17.7841ZM13.3768 17.7841L13.3267 17.8144L13.3438 17.8426H13.3768V17.7841ZM12.2935 15.9915L12.2432 16.0215L12.2434 16.0218L12.2935 15.9915ZM11.832 15.3552L11.7897 15.3957L11.7915 15.3974L11.832 15.3552ZM11.5939 15.1803L11.5669 15.2323L11.5694 15.2334L11.5939 15.1803ZM10.9041 15.1171V15.0586H10.8456V15.1171H10.9041ZM10.9041 17.7841V17.8426H10.9626V17.7841H10.9041ZM9.33504 17.7841H9.27652V17.8426H9.33504V17.7841ZM9.33504 10.8179V10.7594H9.27652V10.8179H9.33504ZM14.2463 13.3877L14.3013 13.4078L14.3014 13.4075L14.2463 13.3877ZM13.4351 14.369L13.4043 14.3192L13.404 14.3194L13.4351 14.369ZM12.7938 14.6508L12.7776 14.5945L12.7353 14.6067V14.6508H12.7938ZM12.7938 14.6702H12.7353V14.7132L12.7764 14.7261L12.7938 14.6702ZM13.095 14.8305L13.0594 14.877L13.0604 14.8777L13.095 14.8305ZM13.6342 15.3989L13.5866 15.4329L13.5877 15.4344L13.6342 15.3989ZM13.8625 15.7244L13.8132 15.7558L13.8132 15.7559L13.8625 15.7244ZM10.9041 11.9935V11.935H10.8456V11.9935H10.9041ZM10.9041 13.9318H10.8456V13.9903H10.9041V13.9318ZM12.3955 13.6403L12.4358 13.6827L12.4359 13.6827L12.3955 13.6403ZM15.179 17.7256H13.3768V17.8426H15.179V17.7256ZM13.4269 17.7538L12.3436 15.9613L12.2434 16.0218L13.3267 17.8144L13.4269 17.7538ZM12.3438 15.9616C12.2622 15.8246 12.1837 15.702 12.1083 15.5937L12.0123 15.6607C12.0858 15.7662 12.1628 15.8864 12.2432 16.0215L12.3438 15.9616ZM12.1083 15.5937C12.032 15.4843 11.9535 15.3906 11.8725 15.3129L11.7915 15.3974C11.8659 15.4687 11.9396 15.5563 12.0123 15.6607L12.1083 15.5937ZM11.8742 15.3147C11.7955 15.2325 11.7103 15.1695 11.6185 15.1271L11.5694 15.2334C11.646 15.2688 11.7195 15.3224 11.7897 15.3957L11.8742 15.3147ZM11.6209 15.1284C11.5311 15.0816 11.4327 15.0586 11.3268 15.0586V15.1757C11.4151 15.1757 11.4948 15.1947 11.5669 15.2322L11.6209 15.1284ZM11.3268 15.0586H10.9041V15.1757H11.3268V15.0586ZM10.8456 15.1171V17.7841H10.9626V15.1171H10.8456ZM10.9041 17.7256H9.33504V17.8426H10.9041V17.7256ZM9.39356 17.7841V10.8179H9.27652V17.7841H9.39356ZM9.33504 10.8765H11.8223V10.7594H9.33504V10.8765ZM11.8223 10.8765C12.6619 10.8765 13.281 11.0336 13.6891 11.3385C14.0939 11.6409 14.2995 12.0953 14.2995 12.7125H14.4166C14.4166 12.0666 14.1995 11.5737 13.7591 11.2447C13.3219 10.918 12.6731 10.7594 11.8223 10.7594V10.8765ZM14.2995 12.7125C14.2995 12.9493 14.2632 13.1676 14.1912 13.3679L14.3014 13.4075C14.3784 13.1933 14.4166 12.9614 14.4166 12.7125H14.2995ZM14.1913 13.3677C14.1191 13.5656 14.0171 13.7444 13.8854 13.9043L13.9757 13.9787C14.116 13.8084 14.2246 13.618 14.3013 13.4078L14.1913 13.3677ZM13.8854 13.9043C13.7537 14.0642 13.5935 14.2025 13.4043 14.3192L13.4658 14.4188C13.6652 14.2959 13.8354 14.1492 13.9757 13.9787L13.8854 13.9043ZM13.404 14.3194C13.2179 14.4361 13.0093 14.5279 12.7776 14.5945L12.81 14.707C13.0512 14.6376 13.27 14.5416 13.4662 14.4186L13.404 14.3194ZM12.7353 14.6508V14.6702H12.8523V14.6508H12.7353ZM12.7764 14.7261C12.8727 14.7562 12.967 14.8061 13.0594 14.877L13.1306 14.7841C13.0287 14.7059 12.9222 14.649 12.8113 14.6144L12.7764 14.7261ZM13.0604 14.8777C13.1543 14.9466 13.2455 15.0283 13.334 15.1231L13.4195 15.0432C13.3266 14.9436 13.23 14.8569 13.1296 14.7833L13.0604 14.8777ZM13.334 15.1231C13.4228 15.2183 13.5071 15.3215 13.5866 15.4329L13.6819 15.3649C13.5995 15.2495 13.512 15.1423 13.4195 15.0432L13.334 15.1231ZM13.5877 15.4344C13.671 15.5433 13.7461 15.6505 13.8132 15.7558L13.9119 15.6929C13.8429 15.5845 13.7658 15.4747 13.6807 15.3633L13.5877 15.4344ZM13.8132 15.7559L15.1297 17.8156L15.2283 17.7526L13.9119 15.6928L13.8132 15.7559ZM10.8456 11.9935V13.9318H10.9626V11.9935H10.8456ZM10.9041 13.9903H11.5842V13.8733H10.9041V13.9903ZM11.5842 13.9903C11.9329 13.9903 12.2189 13.8894 12.4358 13.6827L12.3551 13.598C12.164 13.7799 11.9091 13.8733 11.5842 13.8733V13.9903ZM12.4359 13.6827C12.6549 13.4739 12.7649 13.214 12.7649 12.9068H12.6479C12.6479 13.1826 12.5506 13.4117 12.3551 13.598L12.4359 13.6827ZM12.7649 12.9068C12.7649 12.5903 12.6697 12.3433 12.4707 12.1769C12.2736 12.0123 11.9844 11.935 11.6134 11.935V12.0521C11.971 12.0521 12.2283 12.127 12.3956 12.2668C12.5609 12.4049 12.6479 12.6144 12.6479 12.9068H12.7649ZM11.6134 11.935H10.9041V12.0521H11.6134V11.935ZM20.5227 12.0956V12.1541H20.5812V12.0956H20.5227ZM18.5358 12.0956V12.037H18.4773V12.0956H18.5358ZM18.5358 17.7841V17.8426H18.5943V17.7841H18.5358ZM16.9619 17.7841H16.9033V17.8426H16.9619V17.7841ZM16.9619 12.0956H17.0204V12.037H16.9619V12.0956ZM14.9847 12.0956H14.9262V12.1541H14.9847V12.0956ZM14.9847 10.8179V10.7594H14.9262V10.8179H14.9847ZM20.5227 10.8179H20.5812V10.7594H20.5227V10.8179ZM20.5227 12.037H18.5358V12.1541H20.5227V12.037ZM18.4773 12.0956V17.7841H18.5943V12.0956H18.4773ZM18.5358 17.7256H16.9619V17.8426H18.5358V17.7256ZM17.0204 17.7841V12.0956H16.9033V17.7841H17.0204ZM16.9619 12.037H14.9847V12.1541H16.9619V12.037ZM15.0432 12.0956V10.8179H14.9262V12.0956H15.0432ZM14.9847 10.8765H20.5227V10.7594H14.9847V10.8765ZM20.4641 10.8179V12.0956H20.5812V10.8179H20.4641Z" fill="#1C212A" mask="url(#path-2-outside-1_106_14)"/>
</svg>
