<svg width="32" height="32" viewBox="0 0 32 32" fill="none" xmlns="http://www.w3.org/2000/svg">
<rect x="4" y="8.52941" width="24" height="11.2941" rx="5.64706" fill="#D6E1F6"/>
<rect x="10.353" y="19.8235" width="11.2941" height="5.64706" fill="#D6E1F6"/>
<mask id="path-3-outside-1_106_86" maskUnits="userSpaceOnUse" x="11.7647" y="9.29412" width="9" height="10" fill="black">
<rect fill="white" x="11.7647" y="9.29412" width="9" height="10"/>
<path d="M19.7745 18.2941H17.6006L16.294 16.132C16.1964 15.9679 16.1026 15.8215 16.0128 15.6926C15.9229 15.5636 15.8311 15.4543 15.7374 15.3644C15.6475 15.2707 15.5518 15.2004 15.4503 15.1535C15.3526 15.1027 15.2452 15.0773 15.128 15.0773H14.6182V18.2941H12.7256V9.89177H15.7256C17.7647 9.89177 18.7842 10.6535 18.7842 12.1769C18.7842 12.4699 18.7393 12.7414 18.6495 12.9914C18.5596 13.2375 18.4327 13.4601 18.2686 13.6594C18.1046 13.8586 17.9053 14.0304 17.671 14.175C17.4405 14.3195 17.1827 14.4328 16.8975 14.5148V14.5383C17.0225 14.5773 17.1436 14.6418 17.2608 14.7316C17.378 14.8176 17.4913 14.9191 17.6006 15.0363C17.71 15.1535 17.8135 15.2804 17.9112 15.4172C18.0128 15.55 18.1046 15.6808 18.1866 15.8097L19.7745 18.2941ZM14.6182 11.3097V13.6476H15.4385C15.8448 13.6476 16.171 13.5304 16.4171 13.2961C16.6671 13.0578 16.7921 12.7629 16.7921 12.4113C16.7921 11.6769 16.3526 11.3097 15.4737 11.3097H14.6182Z"/>
</mask>
<path d="M19.7745 18.2941H17.6006L16.294 16.132C16.1964 15.9679 16.1026 15.8215 16.0128 15.6926C15.9229 15.5636 15.8311 15.4543 15.7374 15.3644C15.6475 15.2707 15.5518 15.2004 15.4503 15.1535C15.3526 15.1027 15.2452 15.0773 15.128 15.0773H14.6182V18.2941H12.7256V9.89177H15.7256C17.7647 9.89177 18.7842 10.6535 18.7842 12.1769C18.7842 12.4699 18.7393 12.7414 18.6495 12.9914C18.5596 13.2375 18.4327 13.4601 18.2686 13.6594C18.1046 13.8586 17.9053 14.0304 17.671 14.175C17.4405 14.3195 17.1827 14.4328 16.8975 14.5148V14.5383C17.0225 14.5773 17.1436 14.6418 17.2608 14.7316C17.378 14.8176 17.4913 14.9191 17.6006 15.0363C17.71 15.1535 17.8135 15.2804 17.9112 15.4172C18.0128 15.55 18.1046 15.6808 18.1866 15.8097L19.7745 18.2941ZM14.6182 11.3097V13.6476H15.4385C15.8448 13.6476 16.171 13.5304 16.4171 13.2961C16.6671 13.0578 16.7921 12.7629 16.7921 12.4113C16.7921 11.6769 16.3526 11.3097 15.4737 11.3097H14.6182Z" fill="#1C212A"/>
<path d="M19.7745 18.2941V18.3647H19.9034L19.834 18.2561L19.7745 18.2941ZM17.6006 18.2941L17.5402 18.3306L17.5608 18.3647H17.6006V18.2941ZM16.294 16.132L16.2333 16.1681L16.2336 16.1685L16.294 16.132ZM15.7374 15.3644L15.6864 15.4133L15.6885 15.4154L15.7374 15.3644ZM15.4503 15.1535L15.4177 15.2162L15.4207 15.2176L15.4503 15.1535ZM14.6182 15.0773V15.0067H14.5476V15.0773H14.6182ZM14.6182 18.2941V18.3647H14.6888V18.2941H14.6182ZM12.7256 18.2941H12.6551V18.3647H12.7256V18.2941ZM12.7256 9.89177V9.82119H12.6551V9.89177H12.7256ZM18.6495 12.9914L18.7158 13.0156L18.7159 13.0153L18.6495 12.9914ZM17.671 14.175L17.6339 14.1149L17.6335 14.1152L17.671 14.175ZM16.8975 14.5148L16.878 14.447L16.8269 14.4617V14.5148H16.8975ZM16.8975 14.5383H16.8269V14.5902L16.8765 14.6056L16.8975 14.5383ZM17.2608 14.7316L17.2178 14.7876L17.2191 14.7885L17.2608 14.7316ZM17.9112 15.4172L17.8537 15.4582L17.8551 15.46L17.9112 15.4172ZM18.1866 15.8097L18.127 15.8476L18.1271 15.8478L18.1866 15.8097ZM14.6182 11.3097V11.2392H14.5476V11.3097H14.6182ZM14.6182 13.6476H14.5476V13.7182H14.6182V13.6476ZM16.4171 13.2961L16.4657 13.3472L16.4658 13.3472L16.4171 13.2961ZM19.7745 18.2235H17.6006V18.3647H19.7745V18.2235ZM17.6611 18.2576L16.3544 16.0955L16.2336 16.1685L17.5402 18.3306L17.6611 18.2576ZM16.3547 16.0959C16.2563 15.9307 16.1617 15.7827 16.0707 15.6522L15.9548 15.7329C16.0435 15.8602 16.1364 16.0052 16.2334 16.1681L16.3547 16.0959ZM16.0707 15.6522C15.9787 15.5202 15.8839 15.4071 15.7862 15.3135L15.6885 15.4154C15.7783 15.5014 15.8671 15.6071 15.9548 15.7329L16.0707 15.6522ZM15.7883 15.3156C15.6933 15.2165 15.5906 15.1405 15.4798 15.0894L15.4207 15.2176C15.513 15.2602 15.6017 15.3249 15.6864 15.4133L15.7883 15.3156ZM15.4828 15.0909C15.3745 15.0345 15.2558 15.0067 15.128 15.0067V15.1479C15.2346 15.1479 15.3307 15.1709 15.4177 15.2161L15.4828 15.0909ZM15.128 15.0067H14.6182V15.1479H15.128V15.0067ZM14.5476 15.0773V18.2941H14.6888V15.0773H14.5476ZM14.6182 18.2235H12.7256V18.3647H14.6182V18.2235ZM12.7962 18.2941V9.89177H12.6551V18.2941H12.7962ZM12.7256 9.96236H15.7256V9.82119H12.7256V9.96236ZM15.7256 9.96236C16.7384 9.96236 17.4852 10.1519 17.9773 10.5196C18.4657 10.8844 18.7137 11.4325 18.7137 12.1769H18.8548C18.8548 11.3979 18.5931 10.8034 18.0618 10.4065C17.5345 10.0125 16.7519 9.82119 15.7256 9.82119V9.96236ZM18.7137 12.1769C18.7137 12.4626 18.6699 12.7259 18.583 12.9675L18.7159 13.0153C18.8088 12.7569 18.8548 12.4772 18.8548 12.1769H18.7137ZM18.5832 12.9672C18.496 13.2059 18.373 13.4215 18.2141 13.6145L18.3231 13.7042C18.4923 13.4987 18.6232 13.2691 18.7158 13.0156L18.5832 12.9672ZM18.2141 13.6145C18.0553 13.8073 17.8621 13.9742 17.6339 14.1149L17.708 14.2351C17.9486 14.0867 18.1538 13.9098 18.3231 13.7042L18.2141 13.6145ZM17.6335 14.1152C17.4091 14.2559 17.1574 14.3666 16.878 14.447L16.917 14.5827C17.208 14.499 17.4719 14.3831 17.7085 14.2348L17.6335 14.1152ZM16.8269 14.5148V14.5383H16.9681V14.5148H16.8269ZM16.8765 14.6056C16.9926 14.6419 17.1064 14.7022 17.2179 14.7876L17.3038 14.6756C17.1808 14.5814 17.0524 14.5127 16.9186 14.4709L16.8765 14.6056ZM17.2191 14.7885C17.3324 14.8716 17.4424 14.9702 17.549 15.0845L17.6523 14.9881C17.5402 14.8681 17.4236 14.7635 17.3025 14.6747L17.2191 14.7885ZM17.549 15.0845C17.6562 15.1993 17.7578 15.3239 17.8538 15.4582L17.9686 15.3761C17.8693 15.237 17.7638 15.1077 17.6523 14.9881L17.549 15.0845ZM17.8551 15.46C17.9556 15.5914 18.0462 15.7206 18.127 15.8476L18.2461 15.7718C18.1629 15.6411 18.0699 15.5086 17.9673 15.3743L17.8551 15.46ZM18.1271 15.8478L19.715 18.3321L19.834 18.2561L18.2461 15.7717L18.1271 15.8478ZM14.5476 11.3097V13.6476H14.6888V11.3097H14.5476ZM14.6182 13.7182H15.4385V13.577H14.6182V13.7182ZM15.4385 13.7182C15.8591 13.7182 16.204 13.5964 16.4657 13.3472L16.3684 13.245C16.1379 13.4645 15.8304 13.577 15.4385 13.577V13.7182ZM16.4658 13.3472C16.73 13.0953 16.8626 12.7818 16.8626 12.4113H16.7215C16.7215 12.744 16.6041 13.0203 16.3684 13.245L16.4658 13.3472ZM16.8626 12.4113C16.8626 12.0296 16.7478 11.7316 16.5077 11.531C16.2701 11.3324 15.9212 11.2392 15.4737 11.2392V11.3803C15.905 11.3803 16.2154 11.4707 16.4172 11.6393C16.6166 11.8059 16.7215 12.0587 16.7215 12.4113H16.8626ZM15.4737 11.2392H14.6182V11.3803H15.4737V11.2392Z" fill="#1C212A" mask="url(#path-3-outside-1_106_86)"/>
</svg>
