<svg width="32" height="32" viewBox="0 0 32 32" fill="none" xmlns="http://www.w3.org/2000/svg">
<path d="M27.0697 14.4402L27.334 20.4696C27.37 21.2898 26.7148 21.9744 25.8938 21.9744H7.70617C7.03347 21.9744 6.45019 21.5091 6.30065 20.8532L4.60918 13.4347C4.48208 12.8773 4.69642 12.2974 5.15552 11.9567L8.72522 9.30717C8.95138 9.13931 9.22343 9.04038 9.50482 9.02837C17.5955 8.68305 23.8688 11.569 26.5079 13.388C26.8542 13.6267 27.0512 14.0201 27.0697 14.4402Z" fill="#D6E1F6"/>
<mask id="path-2-outside-1_106_31" maskUnits="userSpaceOnUse" x="8.31059" y="11.5385" width="13" height="9" fill="black">
<rect fill="white" x="8.31059" y="11.5385" width="13" height="9"/>
<path d="M15.0025 19.5385H13.1863L12.0947 17.7321C12.0131 17.595 11.9348 17.4726 11.8597 17.3649C11.7846 17.2572 11.708 17.1659 11.6296 17.0908C11.5546 17.0125 11.4746 16.9537 11.3898 16.9146C11.3082 16.8721 11.2184 16.8509 11.1205 16.8509H10.6946V19.5385H9.11343V12.5186H11.6198C13.3234 12.5186 14.1752 13.1549 14.1752 14.4277C14.1752 14.6725 14.1377 14.8993 14.0626 15.1082C13.9875 15.3138 13.8815 15.4998 13.7444 15.6663C13.6073 15.8327 13.4409 15.9763 13.2451 16.097C13.0525 16.2178 12.8371 16.3124 12.5989 16.381V16.4006C12.7033 16.4332 12.8045 16.487 12.9024 16.5621C13.0003 16.6339 13.095 16.7188 13.1863 16.8167C13.2777 16.9146 13.3642 17.0206 13.4458 17.1349C13.5306 17.2458 13.6073 17.3551 13.6759 17.4628L15.0025 19.5385ZM10.6946 13.7032V15.6565H11.38C11.7194 15.6565 11.9919 15.5586 12.1975 15.3627C12.4064 15.1637 12.5108 14.9173 12.5108 14.6235C12.5108 14.01 12.1436 13.7032 11.4093 13.7032H10.6946ZM15.6634 19.5385V12.5186H18.2187C19.002 12.5186 19.6041 12.6622 20.0251 12.9493C20.4461 13.2365 20.6566 13.6412 20.6566 14.1634C20.6566 14.542 20.5277 14.8732 20.2699 15.1571C20.0153 15.4411 19.689 15.6385 19.2908 15.7495V15.7691C19.7901 15.8311 20.1883 16.0155 20.4853 16.3222C20.7855 16.629 20.9357 17.0027 20.9357 17.4433C20.9357 18.0862 20.7056 18.5969 20.2454 18.9755C19.7853 19.3508 19.157 19.5385 18.3607 19.5385H15.6634ZM17.2446 13.6836V15.3481H17.9397C18.2661 15.3481 18.5223 15.2697 18.7083 15.1131C18.8976 14.9532 18.9922 14.7345 18.9922 14.4571C18.9922 13.9415 18.6071 13.6836 17.8369 13.6836H17.2446ZM17.2446 16.5229V18.3734H18.1013C18.4668 18.3734 18.7523 18.2885 18.9579 18.1188C19.1668 17.9491 19.2712 17.7174 19.2712 17.4237C19.2712 17.143 19.1684 16.9227 18.9628 16.7628C18.7605 16.6029 18.4766 16.5229 18.111 16.5229H17.2446Z"/>
</mask>
<path d="M15.0025 19.5385H13.1863L12.0947 17.7321C12.0131 17.595 11.9348 17.4726 11.8597 17.3649C11.7846 17.2572 11.708 17.1659 11.6296 17.0908C11.5546 17.0125 11.4746 16.9537 11.3898 16.9146C11.3082 16.8721 11.2184 16.8509 11.1205 16.8509H10.6946V19.5385H9.11343V12.5186H11.6198C13.3234 12.5186 14.1752 13.1549 14.1752 14.4277C14.1752 14.6725 14.1377 14.8993 14.0626 15.1082C13.9875 15.3138 13.8815 15.4998 13.7444 15.6663C13.6073 15.8327 13.4409 15.9763 13.2451 16.097C13.0525 16.2178 12.8371 16.3124 12.5989 16.381V16.4006C12.7033 16.4332 12.8045 16.487 12.9024 16.5621C13.0003 16.6339 13.095 16.7188 13.1863 16.8167C13.2777 16.9146 13.3642 17.0206 13.4458 17.1349C13.5306 17.2458 13.6073 17.3551 13.6759 17.4628L15.0025 19.5385ZM10.6946 13.7032V15.6565H11.38C11.7194 15.6565 11.9919 15.5586 12.1975 15.3627C12.4064 15.1637 12.5108 14.9173 12.5108 14.6235C12.5108 14.01 12.1436 13.7032 11.4093 13.7032H10.6946ZM15.6634 19.5385V12.5186H18.2187C19.002 12.5186 19.6041 12.6622 20.0251 12.9493C20.4461 13.2365 20.6566 13.6412 20.6566 14.1634C20.6566 14.542 20.5277 14.8732 20.2699 15.1571C20.0153 15.4411 19.689 15.6385 19.2908 15.7495V15.7691C19.7901 15.8311 20.1883 16.0155 20.4853 16.3222C20.7855 16.629 20.9357 17.0027 20.9357 17.4433C20.9357 18.0862 20.7056 18.5969 20.2454 18.9755C19.7853 19.3508 19.157 19.5385 18.3607 19.5385H15.6634ZM17.2446 13.6836V15.3481H17.9397C18.2661 15.3481 18.5223 15.2697 18.7083 15.1131C18.8976 14.9532 18.9922 14.7345 18.9922 14.4571C18.9922 13.9415 18.6071 13.6836 17.8369 13.6836H17.2446ZM17.2446 16.5229V18.3734H18.1013C18.4668 18.3734 18.7523 18.2885 18.9579 18.1188C19.1668 17.9491 19.2712 17.7174 19.2712 17.4237C19.2712 17.143 19.1684 16.9227 18.9628 16.7628C18.7605 16.6029 18.4766 16.5229 18.111 16.5229H17.2446Z" fill="#1C212A"/>
<path d="M15.0025 19.5385V19.6033H15.121L15.0572 19.5035L15.0025 19.5385ZM13.1863 19.5385L13.1308 19.572L13.1498 19.6033H13.1863V19.5385ZM12.0947 17.7321L12.0389 17.7653L12.0392 17.7656L12.0947 17.7321ZM11.6296 17.0908L11.5827 17.1357L11.5847 17.1376L11.6296 17.0908ZM11.3898 16.9146L11.3598 16.9722L11.3626 16.9735L11.3898 16.9146ZM10.6946 16.8509V16.7861H10.6297V16.8509H10.6946ZM10.6946 19.5385V19.6033H10.7595V19.5385H10.6946ZM9.11343 19.5385H9.04856V19.6033H9.11343V19.5385ZM9.11343 12.5186V12.4537H9.04856V12.5186H9.11343ZM14.0626 15.1082L14.1235 15.1304L14.1237 15.1301L14.0626 15.1082ZM13.2451 16.097L13.211 16.0418L13.2106 16.0421L13.2451 16.097ZM12.5989 16.381L12.581 16.3186L12.534 16.3321V16.381H12.5989ZM12.5989 16.4006H12.534V16.4482L12.5796 16.4625L12.5989 16.4006ZM12.9024 16.5621L12.8629 16.6136L12.8641 16.6144L12.9024 16.5621ZM13.4458 17.1349L13.393 17.1726L13.3943 17.1743L13.4458 17.1349ZM13.6759 17.4628L13.6211 17.4977L13.6212 17.4978L13.6759 17.4628ZM10.6946 13.7032V13.6384H10.6297V13.7032H10.6946ZM10.6946 15.6565H10.6297V15.7213H10.6946V15.6565ZM12.1975 15.3627L12.2422 15.4097L12.2422 15.4097L12.1975 15.3627ZM15.0025 19.4736H13.1863V19.6033H15.0025V19.4736ZM13.2419 19.5049L12.1502 17.6985L12.0392 17.7656L13.1308 19.572L13.2419 19.5049ZM12.1504 17.6989C12.0682 17.5608 11.989 17.437 11.9129 17.3278L11.8065 17.402C11.8805 17.5082 11.958 17.6293 12.0389 17.7653L12.1504 17.6989ZM11.9129 17.3278C11.8359 17.2173 11.7565 17.1225 11.6745 17.044L11.5847 17.1376C11.6594 17.2092 11.7334 17.2971 11.8065 17.402L11.9129 17.3278ZM11.6765 17.0459C11.5967 16.9627 11.5102 16.8987 11.4169 16.8557L11.3626 16.9735C11.439 17.0087 11.5125 17.0623 11.5828 17.1357L11.6765 17.0459ZM11.4197 16.857C11.3283 16.8095 11.2281 16.7861 11.1205 16.7861V16.9158C11.2087 16.9158 11.2881 16.9348 11.3598 16.9721L11.4197 16.857ZM11.1205 16.7861H10.6946V16.9158H11.1205V16.7861ZM10.6297 16.8509V19.5385H10.7595V16.8509H10.6297ZM10.6946 19.4736H9.11343V19.6033H10.6946V19.4736ZM9.1783 19.5385V12.5186H9.04856V19.5385H9.1783ZM9.11343 12.5834H11.6198V12.4537H9.11343V12.5834ZM11.6198 12.5834C12.4654 12.5834 13.0878 12.7417 13.4975 13.0478C13.9037 13.3513 14.1103 13.8073 14.1103 14.4277H14.2401C14.2401 13.7754 14.0208 13.2768 13.5752 12.9439C13.1331 12.6136 12.4778 12.4537 11.6198 12.4537V12.5834ZM14.1103 14.4277C14.1103 14.6658 14.0738 14.8851 14.0016 15.0862L14.1237 15.1301C14.2015 14.9135 14.2401 14.6792 14.2401 14.4277H14.1103ZM14.0017 15.0859C13.9291 15.2847 13.8267 15.4643 13.6943 15.625L13.7945 15.7075C13.9363 15.5353 14.046 15.3428 14.1235 15.1304L14.0017 15.0859ZM13.6943 15.625C13.5621 15.7856 13.4012 15.9246 13.211 16.0418L13.2791 16.1523C13.4806 16.028 13.6526 15.8798 13.7945 15.7075L13.6943 15.625ZM13.2106 16.0421C13.0237 16.1593 12.8139 16.2516 12.581 16.3186L12.6168 16.4433C12.8604 16.3733 13.0814 16.2763 13.2796 16.152L13.2106 16.0421ZM12.534 16.381V16.4006H12.6638V16.381H12.534ZM12.5796 16.4625C12.6759 16.4926 12.7703 16.5426 12.8629 16.6136L12.9419 16.5106C12.8387 16.4315 12.7308 16.3738 12.6183 16.3386L12.5796 16.4625ZM12.8641 16.6144C12.9584 16.6836 13.05 16.7657 13.1389 16.8609L13.2338 16.7724C13.1399 16.6718 13.0423 16.5842 12.9408 16.5098L12.8641 16.6144ZM13.1389 16.8609C13.2283 16.9567 13.313 17.0605 13.393 17.1726L13.4986 17.0971C13.4154 16.9807 13.3272 16.8725 13.2338 16.7724L13.1389 16.8609ZM13.3943 17.1743C13.4781 17.2839 13.5537 17.3917 13.6211 17.4977L13.7306 17.428C13.661 17.3186 13.5832 17.2078 13.4973 17.0954L13.3943 17.1743ZM13.6212 17.4978L14.9479 19.5734L15.0572 19.5035L13.7305 17.4279L13.6212 17.4978ZM10.6297 13.7032V15.6565H10.7595V13.7032H10.6297ZM10.6946 15.7213H11.38V15.5916H10.6946V15.7213ZM11.38 15.7213C11.7326 15.7213 12.0223 15.6192 12.2422 15.4097L12.1527 15.3158C11.9615 15.4979 11.7062 15.5916 11.38 15.5916V15.7213ZM12.2422 15.4097C12.4642 15.1981 12.5757 14.9347 12.5757 14.6235H12.4459C12.4459 14.8999 12.3485 15.1292 12.1527 15.3158L12.2422 15.4097ZM12.5757 14.6235C12.5757 14.3034 12.4793 14.0526 12.277 13.8835C12.077 13.7164 11.7839 13.6384 11.4093 13.6384V13.7681C11.769 13.7681 12.0267 13.8435 12.1938 13.9831C12.3587 14.1208 12.4459 14.3301 12.4459 14.6235H12.5757ZM11.4093 13.6384H10.6946V13.7681H11.4093V13.6384ZM15.6634 19.5385H15.5985V19.6033H15.6634V19.5385ZM15.6634 12.5186V12.4537H15.5985V12.5186H15.6634ZM20.2699 15.1571L20.2219 15.1135L20.2216 15.1138L20.2699 15.1571ZM19.2908 15.7495L19.2734 15.687L19.226 15.7002V15.7495H19.2908ZM19.2908 15.7691H19.226V15.8264L19.2828 15.8334L19.2908 15.7691ZM20.4853 16.3222L20.4387 16.3674L20.4389 16.3676L20.4853 16.3222ZM20.2454 18.9755L20.2864 19.0258L20.2866 19.0256L20.2454 18.9755ZM17.2446 13.6836V13.6188H17.1797V13.6836H17.2446ZM17.2446 15.3481H17.1797V15.4129H17.2446V15.3481ZM18.7083 15.1131L18.7501 15.1627L18.7501 15.1626L18.7083 15.1131ZM17.2446 16.5229V16.4581H17.1797V16.5229H17.2446ZM17.2446 18.3734H17.1797V18.4382H17.2446V18.3734ZM18.9579 18.1188L18.917 18.0685L18.9166 18.0688L18.9579 18.1188ZM18.9628 16.7628L18.9226 16.8137L18.923 16.814L18.9628 16.7628ZM15.7283 19.5385V12.5186H15.5985V19.5385H15.7283ZM15.6634 12.5834H18.2187V12.4537H15.6634V12.5834ZM18.2187 12.5834C18.9955 12.5834 19.5827 12.7261 19.9886 13.0029L20.0617 12.8958C19.6255 12.5982 19.0085 12.4537 18.2187 12.4537V12.5834ZM19.9886 13.0029C20.3913 13.2777 20.5918 13.662 20.5918 14.1634H20.7215C20.7215 13.6204 20.5009 13.1954 20.0617 12.8958L19.9886 13.0029ZM20.5918 14.1634C20.5918 14.5256 20.469 14.8414 20.2219 15.1135L20.3179 15.2007C20.5864 14.9051 20.7215 14.5583 20.7215 14.1634H20.5918ZM20.2216 15.1138C19.976 15.3878 19.6607 15.5791 19.2734 15.687L19.3082 15.812C19.7173 15.698 20.0547 15.4944 20.3182 15.2004L20.2216 15.1138ZM19.226 15.7495V15.7691H19.3557V15.7495H19.226ZM19.2828 15.8334C19.7702 15.894 20.1538 16.073 20.4387 16.3673L20.5319 16.2771C20.2228 15.9579 19.8101 15.7682 19.2988 15.7047L19.2828 15.8334ZM20.4389 16.3676C20.727 16.6619 20.8708 17.0191 20.8708 17.4433H21.0005C21.0005 16.9862 20.8441 16.5961 20.5316 16.2769L20.4389 16.3676ZM20.8708 17.4433C20.8708 18.0685 20.6481 18.5602 20.2042 18.9254L20.2866 19.0256C20.7631 18.6336 21.0005 18.1038 21.0005 17.4433H20.8708ZM20.2044 18.9252C19.7592 19.2883 19.1472 19.4736 18.3607 19.4736V19.6033C19.1669 19.6033 19.8113 19.4133 20.2864 19.0258L20.2044 18.9252ZM18.3607 19.4736H15.6634V19.6033H18.3607V19.4736ZM17.1797 13.6836V15.3481H17.3094V13.6836H17.1797ZM17.2446 15.4129H17.9397V15.2832H17.2446V15.4129ZM17.9397 15.4129C18.2761 15.4129 18.5489 15.3321 18.7501 15.1627L18.6665 15.0635C18.4956 15.2073 18.256 15.2832 17.9397 15.2832V15.4129ZM18.7501 15.1626C18.9559 14.9888 19.0571 14.751 19.0571 14.4571H18.9273C18.9273 14.718 18.8393 14.9175 18.6664 15.0635L18.7501 15.1626ZM19.0571 14.4571C19.0571 14.1805 18.9523 13.9656 18.7395 13.8231C18.5313 13.6837 18.2272 13.6188 17.8369 13.6188V13.7485C18.2168 13.7485 18.4904 13.8125 18.6673 13.9309C18.8396 14.0463 18.9273 14.2181 18.9273 14.4571H19.0571ZM17.8369 13.6188H17.2446V13.7485H17.8369V13.6188ZM17.1797 16.5229V18.3734H17.3094V16.5229H17.1797ZM17.2446 18.4382H18.1013V18.3085H17.2446V18.4382ZM18.1013 18.4382C18.4763 18.4382 18.7783 18.3512 18.9992 18.1688L18.9166 18.0688C18.7263 18.2259 18.4573 18.3085 18.1013 18.3085V18.4382ZM18.9988 18.1692C19.2244 17.9859 19.3361 17.7349 19.3361 17.4237H19.2064C19.2064 17.6999 19.1092 17.9123 18.917 18.0685L18.9988 18.1692ZM19.3361 17.4237C19.3361 17.1248 19.2254 16.8849 19.0027 16.7116L18.923 16.814C19.1115 16.9606 19.2064 17.1612 19.2064 17.4237H19.3361ZM19.0031 16.7119C18.7853 16.5398 18.4852 16.4581 18.111 16.4581V16.5878C18.4679 16.5878 18.7357 16.6659 18.9226 16.8137L19.0031 16.7119ZM18.111 16.4581H17.2446V16.5878H18.111V16.4581Z" fill="#1C212A" mask="url(#path-2-outside-1_106_31)"/>
</svg>
