<svg width="32" height="32" viewBox="0 0 32 32" fill="none" xmlns="http://www.w3.org/2000/svg">
<rect x="4" y="11.0588" width="24" height="11.2941" rx="5.64706" fill="#D6E1F6"/>
<rect x="10.353" y="22.3529" width="11.2941" height="2.82353" fill="#D6E1F6"/>
<mask id="path-3-outside-1_106_73" maskUnits="userSpaceOnUse" x="11.7647" y="11.8235" width="9" height="10" fill="black">
<rect fill="white" x="11.7647" y="11.8235" width="9" height="10"/>
<path d="M19.7745 20.8235H17.6006L16.294 18.6614C16.1964 18.4974 16.1026 18.3509 16.0128 18.222C15.9229 18.0931 15.8311 17.9837 15.7374 17.8938C15.6475 17.8001 15.5518 17.7298 15.4503 17.6829C15.3526 17.6321 15.2452 17.6067 15.128 17.6067H14.6182V20.8235H12.7256V12.4212H15.7256C17.7647 12.4212 18.7842 13.1829 18.7842 14.7063C18.7842 14.9993 18.7393 15.2708 18.6495 15.5208C18.5596 15.7669 18.4327 15.9895 18.2686 16.1888C18.1046 16.388 17.9053 16.5599 17.671 16.7044C17.4405 16.8489 17.1827 16.9622 16.8975 17.0442V17.0677C17.0225 17.1067 17.1436 17.1712 17.2608 17.261C17.378 17.347 17.4913 17.4485 17.6006 17.5657C17.71 17.6829 17.8135 17.8099 17.9112 17.9466C18.0128 18.0794 18.1046 18.2103 18.1866 18.3392L19.7745 20.8235ZM14.6182 13.8392V16.177H15.4385C15.8448 16.177 16.171 16.0599 16.4171 15.8255C16.6671 15.5872 16.7921 15.2923 16.7921 14.9407C16.7921 14.2063 16.3526 13.8392 15.4737 13.8392H14.6182Z"/>
</mask>
<path d="M19.7745 20.8235H17.6006L16.294 18.6614C16.1964 18.4974 16.1026 18.3509 16.0128 18.222C15.9229 18.0931 15.8311 17.9837 15.7374 17.8938C15.6475 17.8001 15.5518 17.7298 15.4503 17.6829C15.3526 17.6321 15.2452 17.6067 15.128 17.6067H14.6182V20.8235H12.7256V12.4212H15.7256C17.7647 12.4212 18.7842 13.1829 18.7842 14.7063C18.7842 14.9993 18.7393 15.2708 18.6495 15.5208C18.5596 15.7669 18.4327 15.9895 18.2686 16.1888C18.1046 16.388 17.9053 16.5599 17.671 16.7044C17.4405 16.8489 17.1827 16.9622 16.8975 17.0442V17.0677C17.0225 17.1067 17.1436 17.1712 17.2608 17.261C17.378 17.347 17.4913 17.4485 17.6006 17.5657C17.71 17.6829 17.8135 17.8099 17.9112 17.9466C18.0128 18.0794 18.1046 18.2103 18.1866 18.3392L19.7745 20.8235ZM14.6182 13.8392V16.177H15.4385C15.8448 16.177 16.171 16.0599 16.4171 15.8255C16.6671 15.5872 16.7921 15.2923 16.7921 14.9407C16.7921 14.2063 16.3526 13.8392 15.4737 13.8392H14.6182Z" fill="#1C212A"/>
<path d="M19.7745 20.8235V20.8941H19.9034L19.834 20.7855L19.7745 20.8235ZM17.6006 20.8235L17.5402 20.86L17.5608 20.8941H17.6006V20.8235ZM16.294 18.6614L16.2333 18.6975L16.2336 18.6979L16.294 18.6614ZM15.7374 17.8938L15.6864 17.9427L15.6885 17.9448L15.7374 17.8938ZM15.4503 17.6829L15.4177 17.7456L15.4207 17.747L15.4503 17.6829ZM14.6182 17.6067V17.5361H14.5476V17.6067H14.6182ZM14.6182 20.8235V20.8941H14.6888V20.8235H14.6182ZM12.7256 20.8235H12.6551V20.8941H12.7256V20.8235ZM12.7256 12.4212V12.3506H12.6551V12.4212H12.7256ZM18.6495 15.5208L18.7158 15.545L18.7159 15.5447L18.6495 15.5208ZM17.671 16.7044L17.6339 16.6443L17.6335 16.6446L17.671 16.7044ZM16.8975 17.0442L16.878 16.9764L16.8269 16.9911V17.0442H16.8975ZM16.8975 17.0677H16.8269V17.1196L16.8765 17.135L16.8975 17.0677ZM17.2608 17.261L17.2178 17.3171L17.2191 17.318L17.2608 17.261ZM17.9112 17.9466L17.8537 17.9876L17.8551 17.9895L17.9112 17.9466ZM18.1866 18.3392L18.127 18.3771L18.1271 18.3772L18.1866 18.3392ZM14.6182 13.8392V13.7686H14.5476V13.8392H14.6182ZM14.6182 16.177H14.5476V16.2476H14.6182V16.177ZM16.4171 15.8255L16.4657 15.8766L16.4658 15.8766L16.4171 15.8255ZM19.7745 20.7529H17.6006V20.8941H19.7745V20.7529ZM17.6611 20.787L16.3544 18.6249L16.2336 18.6979L17.5402 20.86L17.6611 20.787ZM16.3547 18.6253C16.2563 18.4601 16.1617 18.3122 16.0707 18.1816L15.9548 18.2623C16.0435 18.3896 16.1364 18.5346 16.2334 18.6975L16.3547 18.6253ZM16.0707 18.1816C15.9787 18.0496 15.8839 17.9365 15.7862 17.8429L15.6885 17.9448C15.7783 18.0308 15.8671 18.1365 15.9548 18.2623L16.0707 18.1816ZM15.7883 17.845C15.6933 17.7459 15.5906 17.6699 15.4798 17.6188L15.4207 17.747C15.513 17.7896 15.6017 17.8543 15.6864 17.9427L15.7883 17.845ZM15.4828 17.6203C15.3745 17.5639 15.2558 17.5361 15.128 17.5361V17.6773C15.2346 17.6773 15.3307 17.7003 15.4177 17.7455L15.4828 17.6203ZM15.128 17.5361H14.6182V17.6773H15.128V17.5361ZM14.5476 17.6067V20.8235H14.6888V17.6067H14.5476ZM14.6182 20.7529H12.7256V20.8941H14.6182V20.7529ZM12.7962 20.8235V12.4212H12.6551V20.8235H12.7962ZM12.7256 12.4918H15.7256V12.3506H12.7256V12.4918ZM15.7256 12.4918C16.7384 12.4918 17.4852 12.6813 17.9773 13.049C18.4657 13.4139 18.7137 13.962 18.7137 14.7063H18.8548C18.8548 13.9273 18.5931 13.3328 18.0618 12.9359C17.5345 12.5419 16.7519 12.3506 15.7256 12.3506V12.4918ZM18.7137 14.7063C18.7137 14.992 18.6699 15.2553 18.583 15.4969L18.7159 15.5447C18.8088 15.2863 18.8548 15.0066 18.8548 14.7063H18.7137ZM18.5832 15.4966C18.496 15.7353 18.373 15.9509 18.2141 16.1439L18.3231 16.2336C18.4923 16.0282 18.6232 15.7985 18.7158 15.545L18.5832 15.4966ZM18.2141 16.1439C18.0553 16.3367 17.8621 16.5036 17.6339 16.6443L17.708 16.7645C17.9486 16.6161 18.1538 16.4392 18.3231 16.2336L18.2141 16.1439ZM17.6335 16.6446C17.4091 16.7853 17.1574 16.896 16.878 16.9764L16.917 17.1121C17.208 17.0284 17.4719 16.9125 17.7085 16.7642L17.6335 16.6446ZM16.8269 17.0442V17.0677H16.9681V17.0442H16.8269ZM16.8765 17.135C16.9926 17.1713 17.1064 17.2316 17.2179 17.3171L17.3038 17.205C17.1808 17.1108 17.0524 17.0421 16.9186 17.0003L16.8765 17.135ZM17.2191 17.318C17.3324 17.401 17.4424 17.4996 17.549 17.6139L17.6523 17.5176C17.5402 17.3975 17.4236 17.2929 17.3025 17.2041L17.2191 17.318ZM17.549 17.6139C17.6562 17.7287 17.7578 17.8533 17.8538 17.9876L17.9686 17.9056C17.8693 17.7664 17.7638 17.6371 17.6523 17.5176L17.549 17.6139ZM17.8551 17.9895C17.9556 18.1208 18.0462 18.25 18.127 18.3771L18.2461 18.3013C18.1629 18.1705 18.0699 18.038 17.9673 17.9037L17.8551 17.9895ZM18.1271 18.3772L19.715 20.8615L19.834 20.7855L18.2461 18.3011L18.1271 18.3772ZM14.5476 13.8392V16.177H14.6888V13.8392H14.5476ZM14.6182 16.2476H15.4385V16.1065H14.6182V16.2476ZM15.4385 16.2476C15.8591 16.2476 16.204 16.1259 16.4657 15.8766L16.3684 15.7744C16.1379 15.9939 15.8304 16.1065 15.4385 16.1065V16.2476ZM16.4658 15.8766C16.73 15.6247 16.8626 15.3112 16.8626 14.9407H16.7215C16.7215 15.2734 16.6041 15.5497 16.3684 15.7744L16.4658 15.8766ZM16.8626 14.9407C16.8626 14.559 16.7478 14.261 16.5077 14.0604C16.2701 13.8618 15.9212 13.7686 15.4737 13.7686V13.9097C15.905 13.9097 16.2154 14.0001 16.4172 14.1687C16.6166 14.3353 16.7215 14.5881 16.7215 14.9407H16.8626ZM15.4737 13.7686H14.6182V13.9097H15.4737V13.7686Z" fill="#1C212A" mask="url(#path-3-outside-1_106_73)"/>
<path d="M16 11.0588L18.4452 7.88235H13.5547L16 11.0588Z" fill="#D6E1F6"/>
</svg>
